<?xml version="1.0" encoding="UTF-8"?>
<svg xmlns="http://www.w3.org/2000/svg" viewBox="0 0 390 844">
<rect width="390" height="844" rx="40" fill="#f6f7fb"/>
<rect x="0" y="0" width="390" height="78" rx="40" fill="#ffffff"/>
<text x="24" y="44" font-family="Arial" font-size="18" font-weight="700" fill="#05071a">Lightning Certs</text>
<circle cx="350" cy="39" r="18" fill="#05071a"/><text x="350" y="47" text-anchor="middle" font-family="Arial" font-size="24" font-weight="900" fill="#ffc400">ϟ</text>
<text x="24" y="122" font-family="Arial" font-size="30" font-weight="800" fill="#05071a">Workspace</text>
<rect x="20" y="150" width="350" height="74" rx="18" fill="#ffffff" stroke="#e3e7ed"/>
<circle cx="52" cy="187" r="20" fill="#10a8ae"/><text x="52" y="195" text-anchor="middle" font-family="Arial" font-size="22" font-weight="900" fill="#ffc400">ϟ</text>
<text x="86" y="183" font-family="Arial" font-size="18" font-weight="800" fill="#05071a">Live Jobs</text>
<text x="86" y="205" font-family="Arial" font-size="13" fill="#687386">Certificates in progress</text>
<rect x="20" y="246" width="350" height="150" rx="22" fill="#10a8ae"/>
<text x="42" y="285" font-family="Arial" font-size="14" font-weight="800" fill="#ffffff" letter-spacing="2">NEW CERTIFICATE</text>
<text x="42" y="325" font-family="Arial" font-size="26" font-weight="800" fill="#ffffff">Start a new job</text>
<circle cx="325" cy="343" r="28" fill="#ffc400"/><text x="325" y="353" text-anchor="middle" font-family="Arial" font-size="30" font-weight="800" fill="#10a8ae">+</text>
<rect x="20" y="420" width="350" height="102" rx="22" fill="#ffffff" stroke="#e3e7ed"/>
<text x="42" y="455" font-family="Arial" font-size="14" font-weight="800" fill="#10a8ae" letter-spacing="1.5">TODAY</text>
<text x="42" y="487" font-family="Arial" font-size="20" font-weight="800" fill="#05071a">2 certificates</text>
<text x="42" y="510" font-family="Arial" font-size="13" fill="#687386">Ready to review and export</text>
<rect x="0" y="776" width="390" height="68" fill="#ffffff"/><line x1="0" y1="776" x2="390" y2="776" stroke="#dfe4ea"/>
<text x="48" y="808" font-family="Arial" font-size="11" font-weight="800" fill="#10a8ae">⌂</text><text x="32" y="828" font-family="Arial" font-size="10" font-weight="800" fill="#10a8ae">Home</text>
<text x="146" y="808" font-family="Arial" font-size="11" font-weight="800" fill="#8a93a0">▤</text><text x="126" y="828" font-family="Arial" font-size="10" font-weight="700" fill="#8a93a0">Certificates</text>
<text x="258" y="808" font-family="Arial" font-size="11" font-weight="800" fill="#8a93a0">⌂</text><text x="248" y="828" font-family="Arial" font-size="10" font-weight="700" fill="#8a93a0">Properties</text>
<text x="350" y="808" font-family="Arial" font-size="18" font-weight="800" fill="#8a93a0">•••</text><text x="343" y="828" font-family="Arial" font-size="10" font-weight="700" fill="#8a93a0">More</text>
</svg>